<svg class="shape1" width="62" height="31" viewBox="0 0 62 31" fill="none" xmlns="http://www.w3.org/2000/svg">
                            <path d="M-1.10459e-06 -3.51286e-06C-1.46049e-06 4.07097 0.801837 8.10209 2.35973 11.8632C3.91763 15.6243 6.20107 19.0417 9.07969 21.9203C11.9583 24.7989 15.3757 27.0824 19.1368 28.6403C22.8979 30.1982 26.929 31 31 31C35.071 31 39.1021 30.1982 42.8632 28.6403C46.6243 27.0824 50.0417 24.7989 52.9203 21.9203C55.7989 19.0417 58.0824 15.6243 59.6403 11.8632C61.1982 8.10209 62 4.07098 62 -8.02757e-07L31 -8.02758e-07L-1.10459e-06 -3.51286e-06Z" fill="#FF8686"/>
                        </svg>